REM DIRINDEX 1\2\4\18,1\2\4\19,1\2\5\20,1\2\5\21,1\2\6\22,1\2\6\23,1\2\7\24,1\2\8\25,1\2\9\26,1\2\10\27,1\2\10\28,1\3\11\29,1\3\11\30,1\3\11\31,1\3\11\32,1\3\12\33,1\3\12\34,1\3\12\35,1\3\12\36,1\3\13\37,1\3\13\38,1\3\13\39,1\3\13\40,1\3\14\41,1\3\14\42,1\3\15\43,1\3\15\44,1\3\16\45,1\3\16\46,1\3\17\47,1\3\17\48,1\3\17\49,1\3\17\50
REM DIRNAME folder01,folder02,folder03,folder04,folder05,folder06,folder07,folder08,folder09,folder10,folder11,folder12,folder13,folder14,folder15,folder16,folder17,folder18,folder19,folder20,folder21,folder22,folder23,folder24,folder25,folder26,folder27,folder28,folder29,folder30,folder31,folder32,folder33,folder34,folder35,folder36,folder37,folder38,folder39,folder40,folder41,folder42,folder43,folder44,folder45,folder46,folder47,folder48,folder49,folder50
TITLE ""
FILE "12.mp3" MP3
  TRACK 01 AUDIO
    TITLE "0:"
    INDEX 01 00:00:00
  TRACK 02 AUDIO
    TITLE "18:cjc135_1650"
    INDEX 01 00:00:15
  TRACK 03 AUDIO
    TITLE "0:"
    INDEX 01 00:01:42
  TRACK 04 AUDIO
    TITLE "19:cjc135_1651"
    INDEX 01 00:01:68
  TRACK 05 AUDIO
    TITLE "0:"
    INDEX 01 00:03:72
  TRACK 06 AUDIO
    TITLE "18:cjc135_1652"
    INDEX 01 00:04:72
  TRACK 07 AUDIO
    TITLE "0:"
    INDEX 01 00:06:14
  TRACK 08 AUDIO
    TITLE "19:cjc135_1653"
    INDEX 01 00:06:41
  TRACK 09 AUDIO
    TITLE "0:"
    INDEX 01 00:09:08
  TRACK 10 AUDIO
    TITLE "18:cjc135_1654"
    INDEX 01 00:10:08
  TRACK 11 AUDIO
    TITLE "0:"
    INDEX 01 00:11:29
  TRACK 12 AUDIO
    TITLE "19:cjc135_1655"
    INDEX 01 00:11:52
  TRACK 13 AUDIO
    TITLE "0:"
    INDEX 01 00:14:11
  TRACK 14 AUDIO
    TITLE "18:cjc135_1656"
    INDEX 01 00:15:13
  TRACK 15 AUDIO
    TITLE "0:"
    INDEX 01 00:16:20
  TRACK 16 AUDIO
    TITLE "19:cjc135_1657"
    INDEX 01 00:16:48
  TRACK 17 AUDIO
    TITLE "0:"
    INDEX 01 00:18:48
  TRACK 18 AUDIO
    TITLE "18:cjc135_1658"
    INDEX 01 00:19:50
  TRACK 19 AUDIO
    TITLE "0:"
    INDEX 01 00:20:65
  TRACK 20 AUDIO
    TITLE "19:cjc135_1659"
    INDEX 01 00:21:15
  TRACK 21 AUDIO
    TITLE "0:"
    INDEX 01 00:23:03
  TRACK 22 AUDIO
    TITLE "18:cjc135_1660"
    INDEX 01 00:24:02
  TRACK 23 AUDIO
    TITLE "0:"
    INDEX 01 00:25:11
  TRACK 24 AUDIO
    TITLE "19:cjc135_1661"
    INDEX 01 00:25:35
  TRACK 25 AUDIO
    TITLE "0:"
    INDEX 01 00:27:32
  TRACK 26 AUDIO
    TITLE "18:cjc135_1662"
    INDEX 01 00:28:31
  TRACK 27 AUDIO
    TITLE "0:"
    INDEX 01 00:29:42
  TRACK 28 AUDIO
    TITLE "19:cjc135_1663"
    INDEX 01 00:29:64
  TRACK 29 AUDIO
    TITLE "0:"
    INDEX 01 00:32:27
  TRACK 30 AUDIO
    TITLE "18:cjc135_1664"
    INDEX 01 00:33:24
  TRACK 31 AUDIO
    TITLE "0:"
    INDEX 01 00:34:42
  TRACK 32 AUDIO
    TITLE "19:cjc135_1665"
    INDEX 01 00:34:69
  TRACK 33 AUDIO
    TITLE "0:"
    INDEX 01 00:38:08
  TRACK 34 AUDIO
    TITLE "18:cjc135_1666"
    INDEX 01 00:39:11
  TRACK 35 AUDIO
    TITLE "0:"
    INDEX 01 00:40:19
  TRACK 36 AUDIO
    TITLE "19:cjc135_1667"
    INDEX 01 00:40:44
  TRACK 37 AUDIO
    TITLE "0:"
    INDEX 01 00:42:68
  TRACK 38 AUDIO
    TITLE "18:cjc135_1668"
    INDEX 01 00:43:70
  TRACK 39 AUDIO
    TITLE "0:"
    INDEX 01 00:45:06
  TRACK 40 AUDIO
    TITLE "19:cjc135_1669"
    INDEX 01 00:45:32
  TRACK 41 AUDIO
    TITLE "0:"
    INDEX 01 00:48:26
  TRACK 42 AUDIO
    TITLE "18:cjc135_1670"
    INDEX 01 00:49:25
  TRACK 43 AUDIO
    TITLE "0:"
    INDEX 01 00:50:60
  TRACK 44 AUDIO
    TITLE "19:cjc135_1671"
    INDEX 01 00:51:15
  TRACK 45 AUDIO
    TITLE "0:"
    INDEX 01 00:53:45
  TRACK 46 AUDIO
    TITLE "18:cjc135_1672"
    INDEX 01 00:54:44
  TRACK 47 AUDIO
    TITLE "0:"
    INDEX 01 00:55:65
  TRACK 48 AUDIO
    TITLE "19:cjc135_1673"
    INDEX 01 00:56:08
  TRACK 49 AUDIO
    TITLE "0:"
    INDEX 01 00:58:44
  TRACK 50 AUDIO
    TITLE "18:cjc135_1674"
    INDEX 01 00:59:41
  TRACK 51 AUDIO
    TITLE "0:"
    INDEX 01 01:00:35
  TRACK 52 AUDIO
    TITLE "19:cjc135_1675"
    INDEX 01 01:00:62
  TRACK 53 AUDIO
    TITLE "0:"
    INDEX 01 01:03:53
  TRACK 54 AUDIO
    TITLE "18:cjc135_1676"
    INDEX 01 01:04:56
  TRACK 55 AUDIO
    TITLE "0:"
    INDEX 01 01:06:08
  TRACK 56 AUDIO
    TITLE "19:cjc135_1677"
    INDEX 01 01:06:36
  TRACK 57 AUDIO
    TITLE "0:"
    INDEX 01 01:09:14
  TRACK 58 AUDIO
    TITLE "18:cjc135_1678"
    INDEX 01 01:10:16
  TRACK 59 AUDIO
    TITLE "0:"
    INDEX 01 01:11:27
  TRACK 60 AUDIO
    TITLE "19:cjc135_1679"
    INDEX 01 01:11:43
  TRACK 61 AUDIO
    TITLE "0:"
    INDEX 01 01:13:45
  TRACK 62 AUDIO
    TITLE "18:cjc135_1680"
    INDEX 01 01:14:45
  TRACK 63 AUDIO
    TITLE "0:"
    INDEX 01 01:15:62
  TRACK 64 AUDIO
    TITLE "19:cjc135_1681"
    INDEX 01 01:16:11
  TRACK 65 AUDIO
    TITLE "0:"
    INDEX 01 01:18:54
  TRACK 66 AUDIO
    TITLE "18:cjc135_1682"
    INDEX 01 01:19:52
  TRACK 67 AUDIO
    TITLE "0:"
    INDEX 01 01:20:57
  TRACK 68 AUDIO
    TITLE "19:cjc135_1683"
    INDEX 01 01:21:12
  TRACK 69 AUDIO
    TITLE "0:"
    INDEX 01 01:22:56
  TRACK 70 AUDIO
    TITLE "18:cjc135_1684"
    INDEX 01 01:23:58
  TRACK 71 AUDIO
    TITLE "0:"
    INDEX 01 01:24:59
  TRACK 72 AUDIO
    TITLE "19:cjc135_1685"
    INDEX 01 01:25:11
  TRACK 73 AUDIO
    TITLE "0:"
    INDEX 01 01:27:20
  TRACK 74 AUDIO
    TITLE "18:cjc135_1686"
    INDEX 01 01:28:22
  TRACK 75 AUDIO
    TITLE "0:"
    INDEX 01 01:29:29
  TRACK 76 AUDIO
    TITLE "19:cjc135_1687"
    INDEX 01 01:29:54
  TRACK 77 AUDIO
    TITLE "0:"
    INDEX 01 01:32:00
  TRACK 78 AUDIO
    TITLE "18:cjc135_1688"
    INDEX 01 01:32:74
  TRACK 79 AUDIO
    TITLE "0:"
    INDEX 01 01:34:08
  TRACK 80 AUDIO
    TITLE "19:cjc135_1689"
    INDEX 01 01:34:32
  TRACK 81 AUDIO
    TITLE "0:"
    INDEX 01 01:36:11
  TRACK 82 AUDIO
    TITLE "18:cjc135_1690"
    INDEX 01 01:37:13
  TRACK 83 AUDIO
    TITLE "0:"
    INDEX 01 01:38:30
  TRACK 84 AUDIO
    TITLE "19:cjc135_1691"
    INDEX 01 01:38:55
  TRACK 85 AUDIO
    TITLE "0:"
    INDEX 01 01:40:48
  TRACK 86 AUDIO
    TITLE "18:cjc135_1692"
    INDEX 01 01:41:48
  TRACK 87 AUDIO
    TITLE "0:"
    INDEX 01 01:42:65
  TRACK 88 AUDIO
    TITLE "19:cjc135_1693"
    INDEX 01 01:43:15
  TRACK 89 AUDIO
    TITLE "0:"
    INDEX 01 01:46:14
  TRACK 90 AUDIO
    TITLE "18:cjc135_1694"
    INDEX 01 01:47:13
  TRACK 91 AUDIO
    TITLE "0:"
    INDEX 01 01:48:07
  TRACK 92 AUDIO
    TITLE "19:cjc135_1695"
    INDEX 01 01:48:32
  TRACK 93 AUDIO
    TITLE "0:"
    INDEX 01 01:50:74
  TRACK 94 AUDIO
    TITLE "18:cjc135_1696"
    INDEX 01 01:52:00
  TRACK 95 AUDIO
    TITLE "0:"
    INDEX 01 01:52:69
  TRACK 96 AUDIO
    TITLE "19:cjc135_1697"
    INDEX 01 01:53:20
  TRACK 97 AUDIO
    TITLE "0:"
    INDEX 01 01:54:44
  TRACK 98 AUDIO
    TITLE "18:cjc135_1698"
    INDEX 01 01:55:44
  TRACK 99 AUDIO
    TITLE "0:"
    INDEX 01 01:56:57
  TRACK 100 AUDIO
    TITLE "19:cjc135_1699"
    INDEX 01 01:57:08
  TRACK 101 AUDIO
    TITLE "0:"
    INDEX 01 02:00:02
  TRACK 102 AUDIO
    TITLE "18:cjc135_1700"
    INDEX 01 02:01:01
  TRACK 103 AUDIO
    TITLE "0:"
    INDEX 01 02:02:26
  TRACK 104 AUDIO
    TITLE "19:cjc135_1701"
    INDEX 01 02:02:52
  TRACK 105 AUDIO
    TITLE "0:"
    INDEX 01 02:04:62
  TRACK 106 AUDIO
    TITLE "18:cjc135_1702"
    INDEX 01 02:05:62
  TRACK 107 AUDIO
    TITLE "0:"
    INDEX 01 02:06:71
  TRACK 108 AUDIO
    TITLE "19:cjc135_1703"
    INDEX 01 02:07:22
  TRACK 109 AUDIO
    TITLE "0:"
    INDEX 01 02:09:17
  TRACK 110 AUDIO
    TITLE "18:cjc135_1704"
    INDEX 01 02:10:20
  TRACK 111 AUDIO
    TITLE "0:"
    INDEX 01 02:11:29
  TRACK 112 AUDIO
    TITLE "19:cjc135_1705"
    INDEX 01 02:11:57
  TRACK 113 AUDIO
    TITLE "0:"
    INDEX 01 02:14:02
  TRACK 114 AUDIO
    TITLE "18:cjc135_1706"
    INDEX 01 02:15:05
  TRACK 115 AUDIO
    TITLE "0:"
    INDEX 01 02:16:15
  TRACK 116 AUDIO
    TITLE "19:cjc135_1707"
    INDEX 01 02:16:40
  TRACK 117 AUDIO
    TITLE "0:"
    INDEX 01 02:18:27
  TRACK 118 AUDIO
    TITLE "18:cjc135_1708"
    INDEX 01 02:19:27
  TRACK 119 AUDIO
    TITLE "0:"
    INDEX 01 02:20:38
  TRACK 120 AUDIO
    TITLE "19:cjc135_1709"
    INDEX 01 02:20:61
  TRACK 121 AUDIO
    TITLE "0:"
    INDEX 01 02:22:35
  TRACK 122 AUDIO
    TITLE "18:cjc135_1710"
    INDEX 01 02:23:36
  TRACK 123 AUDIO
    TITLE "0:"
    INDEX 01 02:24:36
  TRACK 124 AUDIO
    TITLE "19:cjc135_1711"
    INDEX 01 02:24:57
  TRACK 125 AUDIO
    TITLE "0:"
    INDEX 01 02:26:54
  TRACK 126 AUDIO
    TITLE "18:cjc135_1712"
    INDEX 01 02:27:54
  TRACK 127 AUDIO
    TITLE "0:"
    INDEX 01 02:28:71
  TRACK 128 AUDIO
    TITLE "19:cjc135_1713"
    INDEX 01 02:29:19
  TRACK 129 AUDIO
    TITLE "0:"
    INDEX 01 02:30:74
  TRACK 130 AUDIO
    TITLE "18:cjc135_1714"
    INDEX 01 02:32:00
  TRACK 131 AUDIO
    TITLE "0:"
    INDEX 01 02:33:15
  TRACK 132 AUDIO
    TITLE "19:cjc135_1715"
    INDEX 01 02:33:41
  TRACK 133 AUDIO
    TITLE "0:"
    INDEX 01 02:36:12
  TRACK 134 AUDIO
    TITLE "18:cjc135_1716"
    INDEX 01 02:37:13
  TRACK 135 AUDIO
    TITLE "0:"
    INDEX 01 02:38:18
  TRACK 136 AUDIO
    TITLE "19:cjc135_1717"
    INDEX 01 02:38:42
  TRACK 137 AUDIO
    TITLE "0:"
    INDEX 01 02:40:23
  TRACK 138 AUDIO
    TITLE "18:cjc135_1718"
    INDEX 01 02:41:24
  TRACK 139 AUDIO
    TITLE "0:"
    INDEX 01 02:42:38
  TRACK 140 AUDIO
    TITLE "19:cjc135_1719"
    INDEX 01 02:42:65
  TRACK 141 AUDIO
    TITLE "0:"
    INDEX 01 02:44:42
  TRACK 142 AUDIO
    TITLE "18:cjc135_1720"
    INDEX 01 02:45:40
  TRACK 143 AUDIO
    TITLE "0:"
    INDEX 01 02:46:53
  TRACK 144 AUDIO
    TITLE "19:cjc135_1721"
    INDEX 01 02:47:03
  TRACK 145 AUDIO
    TITLE "0:"
    INDEX 01 02:49:02
  TRACK 146 AUDIO
    TITLE "18:cjc135_1722"
    INDEX 01 02:50:02
  TRACK 147 AUDIO
    TITLE "0:"
    INDEX 01 02:51:15
  TRACK 148 AUDIO
    TITLE "19:cjc135_1723"
    INDEX 01 02:51:39
  TRACK 149 AUDIO
    TITLE "0:"
    INDEX 01 02:53:02
  TRACK 150 AUDIO
    TITLE "18:cjc135_1724"
    INDEX 01 02:54:02
  TRACK 151 AUDIO
    TITLE "0:"
    INDEX 01 02:55:11
  TRACK 152 AUDIO
    TITLE "19:cjc135_1725"
    INDEX 01 02:55:34
  TRACK 153 AUDIO
    TITLE "0:"
    INDEX 01 02:57:29
  TRACK 154 AUDIO
    TITLE "18:cjc135_1726"
    INDEX 01 02:58:29
  TRACK 155 AUDIO
    TITLE "0:"
    INDEX 01 02:59:44
  TRACK 156 AUDIO
    TITLE "19:cjc135_1727"
    INDEX 01 02:59:67
  TRACK 157 AUDIO
    TITLE "0:"
    INDEX 01 03:02:23
  TRACK 158 AUDIO
    TITLE "18:cjc135_1728"
    INDEX 01 03:03:22
  TRACK 159 AUDIO
    TITLE "0:"
    INDEX 01 03:04:45
  TRACK 160 AUDIO
    TITLE "19:cjc135_1729"
    INDEX 01 03:04:71
  TRACK 161 AUDIO
    TITLE "0:"
    INDEX 01 03:06:66
  TRACK 162 AUDIO
    TITLE "18:cjc135_1730"
    INDEX 01 03:07:67
  TRACK 163 AUDIO
    TITLE "0:"
    INDEX 01 03:09:05
  TRACK 164 AUDIO
    TITLE "19:cjc135_1731"
    INDEX 01 03:09:33
  TRACK 165 AUDIO
    TITLE "0:"
    INDEX 01 03:12:45
  TRACK 166 AUDIO
    TITLE "18:cjc135_1732"
    INDEX 01 03:13:44
  TRACK 167 AUDIO
    TITLE "0:"
    INDEX 01 03:14:47
  TRACK 168 AUDIO
    TITLE "19:cjc135_1733"
    INDEX 01 03:14:73
  TRACK 169 AUDIO
    TITLE "0:"
    INDEX 01 03:17:03
  TRACK 170 AUDIO
    TITLE "18:cjc135_1734"
    INDEX 01 03:18:02
  TRACK 171 AUDIO
    TITLE "0:"
    INDEX 01 03:19:11
  TRACK 172 AUDIO
    TITLE "19:cjc135_1735"
    INDEX 01 03:19:37
  TRACK 173 AUDIO
    TITLE "0:"
    INDEX 01 03:21:63
  TRACK 174 AUDIO
    TITLE "18:cjc135_1736"
    INDEX 01 03:22:63
  TRACK 175 AUDIO
    TITLE "0:"
    INDEX 01 03:24:05
  TRACK 176 AUDIO
    TITLE "19:cjc135_1737"
    INDEX 01 03:24:26
  TRACK 177 AUDIO
    TITLE "0:"
    INDEX 01 03:26:11
  TRACK 178 AUDIO
    TITLE "18:cjc135_1738"
    INDEX 01 03:27:13
  TRACK 179 AUDIO
    TITLE "0:"
    INDEX 01 03:28:26
  TRACK 180 AUDIO
    TITLE "19:cjc135_1739"
    INDEX 01 03:28:51
  TRACK 181 AUDIO
    TITLE "0:"
    INDEX 01 03:30:17
  TRACK 182 AUDIO
    TITLE "18:cjc135_1740"
    INDEX 01 03:31:16
  TRACK 183 AUDIO
    TITLE "0:"
    INDEX 01 03:32:32
  TRACK 184 AUDIO
    TITLE "19:cjc135_1741"
    INDEX 01 03:32:55
  TRACK 185 AUDIO
    TITLE "0:"
    INDEX 01 03:34:38
  TRACK 186 AUDIO
    TITLE "18:cjc135_1742"
    INDEX 01 03:35:38
  TRACK 187 AUDIO
    TITLE "0:"
    INDEX 01 03:36:74
  TRACK 188 AUDIO
    TITLE "19:cjc135_1743"
    INDEX 01 03:37:25
  TRACK 189 AUDIO
    TITLE "0:"
    INDEX 01 03:39:41
  TRACK 190 AUDIO
    TITLE "18:cjc135_1744"
    INDEX 01 03:40:45
  TRACK 191 AUDIO
    TITLE "0:"
    INDEX 01 03:41:54
  TRACK 192 AUDIO
    TITLE "19:cjc135_1745"
    INDEX 01 03:42:03
  TRACK 193 AUDIO
    TITLE "0:"
    INDEX 01 03:45:15
  TRACK 194 AUDIO
    TITLE "18:cjc135_1746"
    INDEX 01 03:46:18
  TRACK 195 AUDIO
    TITLE "0:"
    INDEX 01 03:47:23
  TRACK 196 AUDIO
    TITLE "19:cjc135_1747"
    INDEX 01 03:47:49
  TRACK 197 AUDIO
    TITLE "0:"
    INDEX 01 03:49:44
  TRACK 198 AUDIO
    TITLE "18:cjc135_1748"
    INDEX 01 03:50:45
  TRACK 199 AUDIO
    TITLE "0:"
    INDEX 01 03:51:56
  TRACK 200 AUDIO
    TITLE "19:cjc135_1749"
    INDEX 01 03:52:07
  TRACK 201 AUDIO
    TITLE "0:"
    INDEX 01 03:54:63
  TRACK 202 AUDIO
    TITLE "18:cjc135_1750"
    INDEX 01 03:55:62
  TRACK 203 AUDIO
    TITLE "0:"
    INDEX 01 03:56:71
  TRACK 204 AUDIO
    TITLE "19:cjc135_1751"
    INDEX 01 03:57:22
  TRACK 205 AUDIO
    TITLE "0:"
    INDEX 01 03:58:74
  TRACK 206 AUDIO
    TITLE "18:cjc135_1752"
    INDEX 01 04:00:00
  TRACK 207 AUDIO
    TITLE "0:"
    INDEX 01 04:01:12
  TRACK 208 AUDIO
    TITLE "19:cjc135_1753"
    INDEX 01 04:01:35
  TRACK 209 AUDIO
    TITLE "0:"
    INDEX 01 04:03:63
  TRACK 210 AUDIO
    TITLE "18:cjc135_1754"
    INDEX 01 04:04:63
  TRACK 211 AUDIO
    TITLE "0:"
    INDEX 01 04:05:68
  TRACK 212 AUDIO
    TITLE "19:cjc135_1755"
    INDEX 01 04:06:17
  TRACK 213 AUDIO
    TITLE "0:"
    INDEX 01 04:09:29
  TRACK 214 AUDIO
    TITLE "18:cjc135_1756"
    INDEX 01 04:10:26
  TRACK 215 AUDIO
    TITLE "0:"
    INDEX 01 04:11:30
  TRACK 216 AUDIO
    TITLE "19:cjc135_1757"
    INDEX 01 04:11:55
  TRACK 217 AUDIO
    TITLE "0:"
    INDEX 01 04:13:36
  TRACK 218 AUDIO
    TITLE "18:cjc135_1758"
    INDEX 01 04:14:34
  TRACK 219 AUDIO
    TITLE "0:"
    INDEX 01 04:15:29
  TRACK 220 AUDIO
    TITLE "19:cjc135_1759"
    INDEX 01 04:15:57
  TRACK 221 AUDIO
    TITLE "0:"
    INDEX 01 04:18:20
  TRACK 222 AUDIO
    TITLE "18:cjc135_1760"
    INDEX 01 04:19:19
  TRACK 223 AUDIO
    TITLE "0:"
    INDEX 01 04:20:21
  TRACK 224 AUDIO
    TITLE "19:cjc135_1761"
    INDEX 01 04:20:44
  TRACK 225 AUDIO
    TITLE "0:"
    INDEX 01 04:22:29
  TRACK 226 AUDIO
    TITLE "18:cjc135_1762"
    INDEX 01 04:23:33
  TRACK 227 AUDIO
    TITLE "0:"
    INDEX 01 04:24:44
  TRACK 228 AUDIO
    TITLE "19:cjc135_1763"
    INDEX 01 04:24:71
  TRACK 229 AUDIO
    TITLE "0:"
    INDEX 01 04:26:53
  TRACK 230 AUDIO
    TITLE "18:cjc135_1764"
    INDEX 01 04:27:54
  TRACK 231 AUDIO
    TITLE "0:"
    INDEX 01 04:28:63
  TRACK 232 AUDIO
    TITLE "19:cjc135_1765"
    INDEX 01 04:29:10
  TRACK 233 AUDIO
    TITLE "0:"
    INDEX 01 04:30:60
  TRACK 234 AUDIO
    TITLE "18:cjc135_1766"
    INDEX 01 04:31:60
  TRACK 235 AUDIO
    TITLE "0:"
    INDEX 01 04:33:02
  TRACK 236 AUDIO
    TITLE "19:cjc135_1767"
    INDEX 01 04:33:27
  TRACK 237 AUDIO
    TITLE "0:"
    INDEX 01 04:35:11
  TRACK 238 AUDIO
    TITLE "18:cjc135_1768"
    INDEX 01 04:36:12
  TRACK 239 AUDIO
    TITLE "0:"
    INDEX 01 04:37:23
  TRACK 240 AUDIO
    TITLE "19:cjc135_1769"
    INDEX 01 04:37:57
  TRACK 241 AUDIO
    TITLE "0:"
    INDEX 01 04:39:57
  TRACK 242 AUDIO
    TITLE "18:cjc135_1770"
    INDEX 01 04:40:69
  TRACK 243 AUDIO
    TITLE "0:"
    INDEX 01 04:42:20
  TRACK 244 AUDIO
    TITLE "19:cjc135_1771"
    INDEX 01 04:42:44
  TRACK 245 AUDIO
    TITLE "0:"
    INDEX 01 04:44:57
  TRACK 246 AUDIO
    TITLE "18:cjc135_1772"
    INDEX 01 04:45:58
  TRACK 247 AUDIO
    TITLE "0:"
    INDEX 01 04:46:69
  TRACK 248 AUDIO
    TITLE "19:cjc135_1773"
    INDEX 01 04:47:18
  TRACK 249 AUDIO
    TITLE "0:"
    INDEX 01 04:49:38
  TRACK 250 AUDIO
    TITLE "18:cjc135_1774"
    INDEX 01 04:50:38
  TRACK 251 AUDIO
    TITLE "0:"
    INDEX 01 04:51:59
  TRACK 252 AUDIO
    TITLE "19:cjc135_1775"
    INDEX 01 04:52:09
  TRACK 253 AUDIO
    TITLE "0:"
    INDEX 01 04:53:65
  TRACK 254 AUDIO
    TITLE "18:cjc135_1776"
    INDEX 01 04:54:67
  TRACK 255 AUDIO
    TITLE "0:"
    INDEX 01 04:55:74
  TRACK 256 AUDIO
    TITLE "19:cjc135_1777"
    INDEX 01 04:56:24
  TRACK 257 AUDIO
    TITLE "0:"
    INDEX 01 04:59:15
  TRACK 258 AUDIO
    TITLE "18:cjc135_1778"
    INDEX 01 05:00:14
  TRACK 259 AUDIO
    TITLE "0:"
    INDEX 01 05:01:26
  TRACK 260 AUDIO
    TITLE "19:cjc135_1779"
    INDEX 01 05:01:53
  TRACK 261 AUDIO
    TITLE "0:"
    INDEX 01 05:04:08
  TRACK 262 AUDIO
    TITLE "18:cjc135_1780"
    INDEX 01 05:05:10
  TRACK 263 AUDIO
    TITLE "0:"
    INDEX 01 05:06:15
  TRACK 264 AUDIO
    TITLE "19:cjc135_1781"
    INDEX 01 05:06:41
  TRACK 265 AUDIO
    TITLE "0:"
    INDEX 01 05:08:59
  TRACK 266 AUDIO
    TITLE "18:cjc135_1782"
    INDEX 01 05:09:57
  TRACK 267 AUDIO
    TITLE "0:"
    INDEX 01 05:11:12
  TRACK 268 AUDIO
    TITLE "19:cjc135_1783"
    INDEX 01 05:11:38
  TRACK 269 AUDIO
    TITLE "0:"
    INDEX 01 05:13:29
  TRACK 270 AUDIO
    TITLE "18:cjc135_1784"
    INDEX 01 05:14:30
  TRACK 271 AUDIO
    TITLE "0:"
    INDEX 01 05:15:47
  TRACK 272 AUDIO
    TITLE "19:cjc135_1785"
    INDEX 01 05:15:73
  TRACK 273 AUDIO
    TITLE "0:"
    INDEX 01 05:18:03
  TRACK 274 AUDIO
    TITLE "18:cjc135_1786"
    INDEX 01 05:19:08
  TRACK 275 AUDIO
    TITLE "0:"
    INDEX 01 05:20:29
  TRACK 276 AUDIO
    TITLE "19:cjc135_1787"
    INDEX 01 05:20:52
  TRACK 277 AUDIO
    TITLE "0:"
    INDEX 01 05:23:41
  TRACK 278 AUDIO
    TITLE "18:cjc135_1788"
    INDEX 01 05:24:40
  TRACK 279 AUDIO
    TITLE "0:"
    INDEX 01 05:25:50
  TRACK 280 AUDIO
    TITLE "19:cjc135_1789"
    INDEX 01 05:26:02
  TRACK 281 AUDIO
    TITLE "0:"
    INDEX 01 05:27:56
  TRACK 282 AUDIO
    TITLE "18:cjc135_1790"
    INDEX 01 05:28:58
  TRACK 283 AUDIO
    TITLE "0:"
    INDEX 01 05:29:65
  TRACK 284 AUDIO
    TITLE "19:cjc135_1791"
    INDEX 01 05:30:18
  TRACK 285 AUDIO
    TITLE "0:"
    INDEX 01 05:31:68
  TRACK 286 AUDIO
    TITLE "18:cjc135_1792"
    INDEX 01 05:32:69
  TRACK 287 AUDIO
    TITLE "0:"
    INDEX 01 05:34:00
  TRACK 288 AUDIO
    TITLE "19:cjc135_1793"
    INDEX 01 05:34:25
  TRACK 289 AUDIO
    TITLE "0:"
    INDEX 01 05:37:33
  TRACK 290 AUDIO
    TITLE "18:cjc135_1794"
    INDEX 01 05:38:33
  TRACK 291 AUDIO
    TITLE "0:"
    INDEX 01 05:39:44
  TRACK 292 AUDIO
    TITLE "19:cjc135_1795"
    INDEX 01 05:39:73
  TRACK 293 AUDIO
    TITLE "0:"
    INDEX 01 05:42:17
  TRACK 294 AUDIO
    TITLE "18:cjc135_1796"
    INDEX 01 05:43:16
  TRACK 295 AUDIO
    TITLE "0:"
    INDEX 01 05:44:29
  TRACK 296 AUDIO
    TITLE "19:cjc135_1797"
    INDEX 01 05:44:53
  TRACK 297 AUDIO
    TITLE "0:"
    INDEX 01 05:46:66
  TRACK 298 AUDIO
    TITLE "18:cjc135_1798"
    INDEX 01 05:47:65
  TRACK 299 AUDIO
    TITLE "0:"
    INDEX 01 05:49:03
  TRACK 300 AUDIO
    TITLE "19:cjc135_1799"
    INDEX 01 05:49:27
  TRACK 301 AUDIO
    TITLE "0:"
    INDEX 01 05:51:65
  TRACK 302 AUDIO
    TITLE "18:cjc135_1800"
    INDEX 01 05:52:62
  TRACK 303 AUDIO
    TITLE "0:"
    INDEX 01 05:53:66
  TRACK 304 AUDIO
    TITLE "19:cjc135_1801"
    INDEX 01 05:54:14
  TRACK 305 AUDIO
    TITLE "0:"
    INDEX 01 05:56:15
  TRACK 306 AUDIO
    TITLE "18:cjc135_1802"
    INDEX 01 05:57:12
  TRACK 307 AUDIO
    TITLE "0:"
    INDEX 01 05:58:14
  TRACK 308 AUDIO
    TITLE "19:cjc135_1803"
    INDEX 01 05:58:35
  TRACK 309 AUDIO
    TITLE "0:"
    INDEX 01 06:01:38
  TRACK 310 AUDIO
    TITLE "18:cjc135_1804"
    INDEX 01 06:02:39
  TRACK 311 AUDIO
    TITLE "0:"
    INDEX 01 06:03:42
  TRACK 312 AUDIO
    TITLE "19:cjc135_1805"
    INDEX 01 06:03:68
  TRACK 313 AUDIO
    TITLE "0:"
    INDEX 01 06:05:30
  TRACK 314 AUDIO
    TITLE "18:cjc135_1806"
    INDEX 01 06:06:29
  TRACK 315 AUDIO
    TITLE "0:"
    INDEX 01 06:07:36
  TRACK 316 AUDIO
    TITLE "19:cjc135_1807"
    INDEX 01 06:07:60
  TRACK 317 AUDIO
    TITLE "0:"
    INDEX 01 06:10:23
  TRACK 318 AUDIO
    TITLE "18:cjc135_1808"
    INDEX 01 06:11:22
  TRACK 319 AUDIO
    TITLE "0:"
    INDEX 01 06:12:20
  TRACK 320 AUDIO
    TITLE "19:cjc135_1809"
    INDEX 01 06:12:45
  TRACK 321 AUDIO
    TITLE "0:"
    INDEX 01 06:14:72
  TRACK 322 AUDIO
    TITLE "18:cjc135_1810"
    INDEX 01 06:15:69
  TRACK 323 AUDIO
    TITLE "0:"
    INDEX 01 06:17:23
  TRACK 324 AUDIO
    TITLE "19:cjc135_1811"
    INDEX 01 06:17:45
  TRACK 325 AUDIO
    TITLE "0:"
    INDEX 01 06:19:53
  TRACK 326 AUDIO
    TITLE "18:cjc135_1812"
    INDEX 01 06:20:53
  TRACK 327 AUDIO
    TITLE "0:"
    INDEX 01 06:21:74
  TRACK 328 AUDIO
    TITLE "19:cjc135_1813"
    INDEX 01 06:22:26
  TRACK 329 AUDIO
    TITLE "0:"
    INDEX 01 06:24:29
  TRACK 330 AUDIO
    TITLE "18:cjc135_1814"
    INDEX 01 06:25:32
  TRACK 331 AUDIO
    TITLE "0:"
    INDEX 01 06:26:53
  TRACK 332 AUDIO
    TITLE "19:cjc135_1815"
    INDEX 01 06:27:04
  TRACK 333 AUDIO
    TITLE "0:"
    INDEX 01 06:29:54
  TRACK 334 AUDIO
    TITLE "18:cjc135_1816"
    INDEX 01 06:30:55
  TRACK 335 AUDIO
    TITLE "0:"
    INDEX 01 06:31:68
  TRACK 336 AUDIO
    TITLE "19:cjc135_1817"
    INDEX 01 06:32:21
  TRACK 337 AUDIO
    TITLE "0:"
    INDEX 01 06:34:51
  TRACK 338 AUDIO
    TITLE "18:cjc135_1818"
    INDEX 01 06:35:52
  TRACK 339 AUDIO
    TITLE "0:"
    INDEX 01 06:36:71
  TRACK 340 AUDIO
    TITLE "19:cjc135_1819"
    INDEX 01 06:37:22
  TRACK 341 AUDIO
    TITLE "0:"
    INDEX 01 06:40:08
  TRACK 342 AUDIO
    TITLE "18:cjc135_1820"
    INDEX 01 06:41:10
  TRACK 343 AUDIO
    TITLE "0:"
    INDEX 01 06:42:56
  TRACK 344 AUDIO
    TITLE "19:cjc135_1821"
    INDEX 01 06:43:05
  TRACK 345 AUDIO
    TITLE "0:"
    INDEX 01 06:46:17
  TRACK 346 AUDIO
    TITLE "18:cjc135_1822"
    INDEX 01 06:47:16
  TRACK 347 AUDIO
    TITLE "0:"
    INDEX 01 06:48:29
  TRACK 348 AUDIO
    TITLE "19:cjc135_1823"
    INDEX 01 06:48:53
  TRACK 349 AUDIO
    TITLE "0:"
    INDEX 01 06:51:51
  TRACK 350 AUDIO
    TITLE "18:cjc135_1824"
    INDEX 01 06:52:49
  TRACK 351 AUDIO
    TITLE "0:"
    INDEX 01 06:53:74
  TRACK 352 AUDIO
    TITLE "19:cjc135_1825"
    INDEX 01 06:54:22
  TRACK 353 AUDIO
    TITLE "0:"
    INDEX 01 06:57:09
  TRACK 354 AUDIO
    TITLE "18:cjc135_1826"
    INDEX 01 06:58:10
  TRACK 355 AUDIO
    TITLE "0:"
    INDEX 01 06:59:23
  TRACK 356 AUDIO
    TITLE "19:cjc135_1827"
    INDEX 01 06:59:47
  TRACK 357 AUDIO
    TITLE "0:"
    INDEX 01 07:01:26
  TRACK 358 AUDIO
    TITLE "18:cjc135_1828"
    INDEX 01 07:02:28
  TRACK 359 AUDIO
    TITLE "0:"
    INDEX 01 07:03:45
  TRACK 360 AUDIO
    TITLE "19:cjc135_1829"
    INDEX 01 07:03:70
  TRACK 361 AUDIO
    TITLE "0:"
    INDEX 01 07:05:71
  TRACK 362 AUDIO
    TITLE "18:cjc135_1830"
    INDEX 01 07:06:72
  TRACK 363 AUDIO
    TITLE "0:"
    INDEX 01 07:08:14
  TRACK 364 AUDIO
    TITLE "19:cjc135_1831"
    INDEX 01 07:08:40
  TRACK 365 AUDIO
    TITLE "0:"
    INDEX 01 07:10:17
  TRACK 366 AUDIO
    TITLE "18:cjc135_1832"
    INDEX 01 07:11:17
  TRACK 367 AUDIO
    TITLE "0:"
    INDEX 01 07:12:18
  TRACK 368 AUDIO
    TITLE "19:cjc135_1833"
    INDEX 01 07:12:46
  TRACK 369 AUDIO
    TITLE "0:"
    INDEX 01 07:15:09
  TRACK 370 AUDIO
    TITLE "18:cjc135_1834"
    INDEX 01 07:16:10
  TRACK 371 AUDIO
    TITLE "0:"
    INDEX 01 07:17:11
  TRACK 372 AUDIO
    TITLE "19:cjc135_1835"
    INDEX 01 07:17:37
  TRACK 373 AUDIO
    TITLE "0:"
    INDEX 01 07:18:74
  TRACK 374 AUDIO
    TITLE "18:cjc135_1836"
    INDEX 01 07:20:00
  TRACK 375 AUDIO
    TITLE "0:"
    INDEX 01 07:21:05
  TRACK 376 AUDIO
    TITLE "19:cjc135_1837"
    INDEX 01 07:21:33
  TRACK 377 AUDIO
    TITLE "0:"
    INDEX 01 07:23:47
  TRACK 378 AUDIO
    TITLE "18:cjc135_1838"
    INDEX 01 07:24:47
  TRACK 379 AUDIO
    TITLE "0:"
    INDEX 01 07:25:60
  TRACK 380 AUDIO
    TITLE "19:cjc135_1839"
    INDEX 01 07:26:10
  TRACK 381 AUDIO
    TITLE "0:"
    INDEX 01 07:28:05
  TRACK 382 AUDIO
    TITLE "18:cjc135_1840"
    INDEX 01 07:29:07
  TRACK 383 AUDIO
    TITLE "0:"
    INDEX 01 07:30:24
  TRACK 384 AUDIO
    TITLE "19:cjc135_1841"
    INDEX 01 07:30:49
  TRACK 385 AUDIO
    TITLE "0:"
    INDEX 01 07:33:05
  TRACK 386 AUDIO
    TITLE "18:cjc135_1842"
    INDEX 01 07:34:04
  TRACK 387 AUDIO
    TITLE "0:"
    INDEX 01 07:35:09
  TRACK 388 AUDIO
    TITLE "19:cjc135_1843"
    INDEX 01 07:35:35
  TRACK 389 AUDIO
    TITLE "0:"
    INDEX 01 07:37:71
  TRACK 390 AUDIO
    TITLE "18:cjc135_1844"
    INDEX 01 07:38:72
  TRACK 391 AUDIO
    TITLE "0:"
    INDEX 01 07:40:05
  TRACK 392 AUDIO
    TITLE "19:cjc135_1845"
    INDEX 01 07:40:32
  TRACK 393 AUDIO
    TITLE "0:"
    INDEX 01 07:42:39
  TRACK 394 AUDIO
    TITLE "18:cjc135_1846"
    INDEX 01 07:43:36
  TRACK 395 AUDIO
    TITLE "0:"
    INDEX 01 07:44:48
  TRACK 396 AUDIO
    TITLE "19:cjc135_1847"
    INDEX 01 07:44:73
  TRACK 397 AUDIO
    TITLE "0:"
    INDEX 01 07:47:20
  TRACK 398 AUDIO
    TITLE "18:cjc135_1848"
    INDEX 01 07:48:20
  TRACK 399 AUDIO
    TITLE "0:"
    INDEX 01 07:49:29
  TRACK 400 AUDIO
    TITLE "19:cjc135_1849"
    INDEX 01 07:49:53
  TRACK 401 AUDIO
    TITLE "0:"
    INDEX 01 07:52:02
